<svg width="240" height="240" viewBox="0 0 240 240" fill="none" xmlns="http://www.w3.org/2000/svg">
<g opacity="0.64">
<rect width="240" height="240" rx="40" fill="#FDF1EC"/>
<path d="M85.2784 118.129C84.9304 115.952 83.2251 114.679 81.0724 114.679C78.4375 114.679 76.4936 116.653 76.4936 119.909C76.4936 123.165 78.4276 125.139 81.0724 125.139C83.3097 125.139 84.9453 123.737 85.2784 121.724L83.7273 121.719C83.4638 123.021 82.37 123.737 81.0824 123.737C79.3374 123.737 78.0199 122.4 78.0199 119.909C78.0199 117.438 79.3324 116.081 81.0874 116.081C82.3849 116.081 83.4737 116.812 83.7273 118.129H85.2784ZM88.4838 120.466C88.4838 119.248 89.2544 118.552 90.3134 118.552C91.3375 118.552 91.949 119.203 91.949 120.322V125H93.4355V120.143C93.4355 118.239 92.3915 117.264 90.8205 117.264C89.6323 117.264 88.9164 117.781 88.5584 118.607H88.464V114.818H86.9973V125H88.4838V120.466ZM102.698 116.996C102.693 117.935 102.648 118.413 101.763 118.517V117.364H100.271V121.833C100.276 123.131 99.312 123.747 98.4767 123.747C97.557 123.747 96.9206 123.081 96.9206 122.042V117.364H95.4341V122.221C95.4341 124.115 96.4732 125.099 97.9398 125.099C99.0882 125.099 99.8688 124.493 100.222 123.678H100.301V125H101.763V119.382C103.319 119.268 103.791 118.457 103.796 116.996H102.698ZM106.761 125.169C108.023 125.169 108.734 124.528 109.018 123.956H109.077V125H110.529V119.929C110.529 117.707 108.779 117.264 107.566 117.264C106.184 117.264 104.911 117.821 104.414 119.213L105.811 119.531C106.03 118.989 106.587 118.467 107.586 118.467C108.545 118.467 109.038 118.969 109.038 119.835V119.869C109.038 120.411 108.481 120.401 107.109 120.56C105.662 120.729 104.18 121.107 104.18 122.842C104.18 124.344 105.309 125.169 106.761 125.169ZM107.084 123.976C106.244 123.976 105.637 123.598 105.637 122.862C105.637 122.067 106.343 121.783 107.203 121.669C107.685 121.604 108.829 121.475 109.043 121.261V122.246C109.043 123.151 108.322 123.976 107.084 123.976ZM119.431 125.154C121.235 125.154 122.404 124.07 122.568 122.584H121.121C120.932 123.409 120.291 123.896 119.441 123.896C118.183 123.896 117.373 122.847 117.373 121.182C117.373 119.546 118.198 118.517 119.441 118.517C120.385 118.517 120.962 119.114 121.121 119.83H122.568C122.409 118.288 121.151 117.264 119.416 117.264C117.263 117.264 115.871 118.885 115.871 121.217C115.871 123.518 117.213 125.154 119.431 125.154ZM127.374 125.154C129.527 125.154 130.934 123.578 130.934 121.217C130.934 118.84 129.527 117.264 127.374 117.264C125.221 117.264 123.814 118.84 123.814 121.217C123.814 123.578 125.221 125.154 127.374 125.154ZM127.379 123.906C125.972 123.906 125.316 122.678 125.316 121.212C125.316 119.75 125.972 118.507 127.379 118.507C128.776 118.507 129.432 119.75 129.432 121.212C129.432 122.678 128.776 123.906 127.379 123.906ZM126.763 116.344H127.951L129.492 114.053H127.926L126.763 116.344ZM137.785 114.818H136.298V125H137.785V114.818ZM143.001 125.154C145.154 125.154 146.561 123.578 146.561 121.217C146.561 118.84 145.154 117.264 143.001 117.264C140.848 117.264 139.441 118.84 139.441 121.217C139.441 123.578 140.848 125.154 143.001 125.154ZM143.006 123.906C141.599 123.906 140.943 122.678 140.943 121.212C140.943 119.75 141.599 118.507 143.006 118.507C144.403 118.507 145.059 119.75 145.059 121.212C145.059 122.678 144.403 123.906 143.006 123.906ZM151.422 128.023C153.366 128.023 154.867 127.133 154.867 125.169V117.364H153.41V118.602H153.301C153.037 118.129 152.51 117.264 151.089 117.264C149.244 117.264 147.887 118.721 147.887 121.152C147.887 123.588 149.274 124.886 151.079 124.886C152.481 124.886 153.023 124.095 153.291 123.608H153.385V125.109C153.385 126.308 152.565 126.825 151.437 126.825C150.199 126.825 149.716 126.203 149.453 125.766L148.175 126.293C148.578 127.227 149.597 128.023 151.422 128.023ZM151.407 123.653C150.079 123.653 149.388 122.634 149.388 121.132C149.388 119.665 150.064 118.527 151.407 118.527C152.704 118.527 153.4 119.586 153.4 121.132C153.4 122.708 152.689 123.653 151.407 123.653ZM160.077 125.154C162.23 125.154 163.637 123.578 163.637 121.217C163.637 118.84 162.23 117.264 160.077 117.264C157.925 117.264 156.518 118.84 156.518 121.217C156.518 123.578 157.925 125.154 160.077 125.154ZM160.082 123.906C158.675 123.906 158.019 122.678 158.019 121.212C158.019 119.75 158.675 118.507 160.082 118.507C161.479 118.507 162.135 119.75 162.135 121.212C162.135 122.678 161.479 123.906 160.082 123.906Z" fill="#474D66"/>
</g>
</svg>
