<svg xmlns="http://www.w3.org/2000/svg" xmlns:xlink="http://www.w3.org/1999/xlink" width="208" height="357" viewBox="0 0 208 357"><defs><style>.a{fill:url(#a);}.b{clip-path:url(#c);}.c{opacity:0.07;fill:url(#d);}.d{clip-path:url(#e);}.e{opacity:0.15;fill:url(#f);}</style><linearGradient id="a" x1="0.5" x2="0.5" y2="1.431" gradientUnits="objectBoundingBox"><stop offset="0" stop-color="#095dd9"/><stop offset="1" stop-color="#42e3a3"/></linearGradient><clipPath id="c"><rect class="a" width="208" height="346" transform="translate(0 0.107)"/></clipPath><linearGradient id="d" x1="0.777" y1="0.531" x2="1" y2="1" gradientUnits="objectBoundingBox"><stop offset="0" stop-color="#fff"/><stop offset="1" stop-color="gray"/></linearGradient><clipPath id="e"><rect class="a" width="208" height="262" transform="translate(0 -0.727)"/></clipPath><linearGradient id="f" x1="0.777" y1="0.531" x2="1" y2="1" gradientUnits="objectBoundingBox"><stop offset="0" stop-color="#83d0fe"/><stop offset="1" stop-color="#fff"/></linearGradient></defs><g transform="translate(0 -424)"><g class="b" transform="translate(0 423.893)"><path class="c" d="M551,3639.066h727.289s12.753-164.049,0-189.912-62.595-143.5-205.2-150.171-146.331,53.555-282.045,68.8S551,3294.591,551,3294.591Z" transform="translate(-1070.582 -3282.229)"/></g><g class="d" transform="translate(0 519.727)"><path class="e" d="M551,3490.227l709.825-6.791-11.514-126.93s-31.842-131.391-181.368-134.76-141.182,105.768-276.9,114.427S551,3294.606,551,3294.606Z" transform="translate(-1040.51 -3210.337)"/></g></g></svg>