<?xml version="1.0" encoding="utf-8"?>
<svg version="1.1" xmlns:xlink="http://www.w3.org/1999/xlink" width="32px" height="32px" xmlns="http://www.w3.org/2000/svg">
  <g transform="matrix(1 0 0 1 0 -3 )">
    <path d="M 16 30.5714285714286  C 16.2051282051282 30.5714285714286  16.3076923076923 30.4761904761905  16.3076923076923 30.2857142857143  C 16.3076923076923 30.0952380952381  16.2051282051282 30  16 30  C 15.2435897435897 30  14.5929487179487 29.7470238095238  14.0480769230769 29.2410714285714  C 13.5032051282051 28.735119047619  13.2307692307692 28.1309523809524  13.2307692307692 27.4285714285714  C 13.2307692307692 27.2380952380952  13.1282051282051 27.1428571428571  12.9230769230769 27.1428571428571  C 12.7179487179487 27.1428571428571  12.6153846153846 27.2380952380952  12.6153846153846 27.4285714285714  C 12.6153846153846 28.297619047619  12.9455128205128 29.0386904761905  13.6057692307692 29.6517857142857  C 14.2660256410256 30.264880952381  15.0641025641026 30.5714285714286  16 30.5714285714286  Z M 8.61538461538462 10.2857142857143  C 8.61538461538462 16.6190476190476  6.91025641025641 21.5714285714286  3.5 25  L 28.5 25  C 25.0897435897436 21.5714285714286  23.3846153846154 16.6190476190476  23.3846153846154 10.2857142857143  C 23.3846153846154 9.67857142857143  23.2307692307692 9.05357142857143  22.9230769230769 8.41071428571428  C 22.6153846153846 7.76785714285714  22.1730769230769 7.1547619047619  21.5961538461538 6.57142857142857  C 21.0192307692308 5.98809523809524  20.2403846153846 5.50892857142857  19.2596153846154 5.13392857142857  C 18.2788461538462 4.75892857142857  17.1923076923077 4.57142857142857  16 4.57142857142857  C 14.8076923076923 4.57142857142857  13.7211538461538 4.75892857142857  12.7403846153846 5.13392857142857  C 11.7596153846154 5.50892857142857  10.9807692307692 5.98809523809524  10.4038461538462 6.57142857142857  C 9.82692307692308 7.1547619047619  9.38461538461539 7.76785714285714  9.07692307692308 8.41071428571428  C 8.76923076923077 9.05357142857143  8.61538461538462 9.67857142857143  8.61538461538462 10.2857142857143  Z M 30.25 23.5714285714286  C 30.775641025641 24.1190476190476  31.3589743589744 24.6428571428571  32 25.1428571428571  C 32 25.7619047619048  31.7564102564103 26.2976190476191  31.2692307692308 26.75  C 30.7820512820513 27.2023809523809  30.2051282051282 27.4285714285714  29.5384615384615 27.4285714285714  L 20.9230769230769 27.4285714285714  C 20.9230769230769 28.6904761904762  20.4423076923077 29.7678571428571  19.4807692307692 30.6607142857143  C 18.5192307692308 31.5535714285714  17.3589743589744 32  16 32  C 14.6410256410256 32  13.4807692307692 31.5535714285714  12.5192307692308 30.6607142857143  C 11.5576923076923 29.7678571428571  11.0769230769231 28.6904761904762  11.0769230769231 27.4285714285714  L 2.46153846153846 27.4285714285714  C 1.7948717948718 27.4285714285714  1.21794871794872 27.2023809523809  0.730769230769231 26.75  C 0.243589743589744 26.2976190476191  0 25.7619047619048  0 25.1428571428571  C 0.641025641025641 24.6428571428571  1.22435897435897 24.1190476190476  1.75 23.5714285714286  C 2.27564102564103 23.0238095238095  2.82051282051282 22.3125  3.38461538461538 21.4375  C 3.94871794871795 20.5625  4.42628205128205 19.6190476190476  4.81730769230769 18.6071428571429  C 5.20833333333333 17.5952380952381  5.52884615384615 16.3690476190476  5.77884615384615 14.9285714285714  C 6.02884615384615 13.4880952380952  6.15384615384615 11.9404761904762  6.15384615384615 10.2857142857143  C 6.15384615384615 8.47619047619047  6.90384615384615 6.79464285714286  8.40384615384615 5.24107142857143  C 9.90384615384615 3.6875  11.8717948717949 2.74404761904762  14.3076923076923 2.41071428571428  C 14.2051282051282 2.18452380952381  14.1538461538462 1.95238095238095  14.1538461538462 1.71428571428572  C 14.1538461538462 1.23809523809524  14.3333333333333 0.833333333333332  14.6923076923077 0.5  C 15.0512820512821 0.166666666666668  15.4871794871795 0  16 0  C 16.5128205128205 0  16.948717948718 0.166666666666668  17.3076923076923 0.5  C 17.6666666666667 0.833333333333332  17.8461538461538 1.23809523809524  17.8461538461538 1.71428571428572  C 17.8461538461538 1.95238095238095  17.7948717948718 2.18452380952381  17.6923076923077 2.41071428571428  C 20.1282051282051 2.74404761904762  22.0961538461538 3.6875  23.5961538461538 5.24107142857143  C 25.0961538461538 6.79464285714286  25.8461538461538 8.47619047619047  25.8461538461538 10.2857142857143  C 25.8461538461538 11.9404761904762  25.9711538461538 13.4880952380952  26.2211538461538 14.9285714285714  C 26.4711538461538 16.3690476190476  26.7916666666667 17.5952380952381  27.1826923076923 18.6071428571429  C 27.573717948718 19.6190476190476  28.0512820512821 20.5625  28.6153846153846 21.4375  C 29.1794871794872 22.3125  29.724358974359 23.0238095238095  30.25 23.5714285714286  Z " fill-rule="nonzero" fill="#00777f" stroke="none" transform="matrix(1 0 0 1 0 3 )" />
  </g>
</svg>