<svg width="24" height="24" viewBox="0 0 24 24" fill="none" xmlns="http://www.w3.org/2000/svg">
<rect width="24" height="24" rx="4" fill="#F4F6FA"/>
<path fill-rule="evenodd" clip-rule="evenodd" d="M18.8914 10.6265H5.62699C5.31889 10.6265 5.06885 10.3765 5.06885 10.0684C5.06885 9.7603 5.31889 9.51025 5.62699 9.51025H18.8914C19.1995 9.51025 19.4495 9.7603 19.4495 10.0684C19.4495 10.3765 19.1995 10.6265 18.8914 10.6265Z" fill="#8F95B2"/>
<path fill-rule="evenodd" clip-rule="evenodd" d="M15.5684 13.5328C15.2603 13.5328 15.0073 13.2827 15.0073 12.9746C15.0073 12.6666 15.2536 12.4165 15.5617 12.4165H15.5684C15.8765 12.4165 16.1266 12.6666 16.1266 12.9746C16.1266 13.2827 15.8765 13.5328 15.5684 13.5328Z" fill="#8F95B2"/>
<path fill-rule="evenodd" clip-rule="evenodd" d="M12.2662 13.5328C11.9581 13.5328 11.7051 13.2827 11.7051 12.9746C11.7051 12.6666 11.9514 12.4165 12.2595 12.4165H12.2662C12.5743 12.4165 12.8243 12.6666 12.8243 12.9746C12.8243 13.2827 12.5743 13.5328 12.2662 13.5328Z" fill="#8F95B2"/>
<path fill-rule="evenodd" clip-rule="evenodd" d="M8.95688 13.5328C8.64879 13.5328 8.39502 13.2827 8.39502 12.9746C8.39502 12.6666 8.64209 12.4165 8.95018 12.4165H8.95688C9.26497 12.4165 9.51502 12.6666 9.51502 12.9746C9.51502 13.2827 9.26497 13.5328 8.95688 13.5328Z" fill="#8F95B2"/>
<path fill-rule="evenodd" clip-rule="evenodd" d="M15.5684 16.4251C15.2603 16.4251 15.0073 16.1751 15.0073 15.867C15.0073 15.5589 15.2536 15.3088 15.5617 15.3088H15.5684C15.8765 15.3088 16.1266 15.5589 16.1266 15.867C16.1266 16.1751 15.8765 16.4251 15.5684 16.4251Z" fill="#8F95B2"/>
<path fill-rule="evenodd" clip-rule="evenodd" d="M12.2662 16.4251C11.9581 16.4251 11.7051 16.1751 11.7051 15.867C11.7051 15.5589 11.9514 15.3088 12.2595 15.3088H12.2662C12.5743 15.3088 12.8243 15.5589 12.8243 15.867C12.8243 16.1751 12.5743 16.4251 12.2662 16.4251Z" fill="#8F95B2"/>
<path fill-rule="evenodd" clip-rule="evenodd" d="M8.95688 16.4251C8.64879 16.4251 8.39502 16.1751 8.39502 15.867C8.39502 15.5589 8.64209 15.3088 8.95018 15.3088H8.95688C9.26497 15.3088 9.51502 15.5589 9.51502 15.867C9.51502 16.1751 9.26497 16.4251 8.95688 16.4251Z" fill="#8F95B2"/>
<path fill-rule="evenodd" clip-rule="evenodd" d="M15.2647 7.5654C14.9566 7.5654 14.7065 7.31535 14.7065 7.00726V4.55814C14.7065 4.25005 14.9566 4 15.2647 4C15.5728 4 15.8228 4.25005 15.8228 4.55814V7.00726C15.8228 7.31535 15.5728 7.5654 15.2647 7.5654Z" fill="#8F95B2"/>
<path fill-rule="evenodd" clip-rule="evenodd" d="M9.25345 7.5654C8.94536 7.5654 8.69531 7.31535 8.69531 7.00726V4.55814C8.69531 4.25005 8.94536 4 9.25345 4C9.56155 4 9.81159 4.25005 9.81159 4.55814V7.00726C9.81159 7.31535 9.56155 7.5654 9.25345 7.5654Z" fill="#8F95B2"/>
<mask id="mask0" style="mask-type:alpha" maskUnits="userSpaceOnUse" x="5" y="5" width="15" height="15">
<path fill-rule="evenodd" clip-rule="evenodd" d="M5 5.17505H19.5116V19.9999H5V5.17505Z" fill="white"/>
</mask>
<g mask="url(#mask0)">
<path fill-rule="evenodd" clip-rule="evenodd" d="M9.10865 6.29167C7.17898 6.29167 6.11628 7.32088 6.11628 9.18953V15.9237C6.11628 17.8333 7.17898 18.884 9.10865 18.884H15.403C17.3327 18.884 18.3953 17.8526 18.3953 15.9802V9.18953C18.3983 8.27046 18.1513 7.55604 17.6608 7.06488C17.1563 6.55883 16.3786 6.29167 15.4097 6.29167H9.10865ZM15.403 20H9.10865C6.5747 20 5 18.4379 5 15.9233V9.18919C5 6.71254 6.5747 5.17505 9.10865 5.17505H15.4097C16.6815 5.17505 17.733 5.55607 18.4512 6.2757C19.1485 6.97598 19.5153 7.98286 19.5116 9.19068V15.9799C19.5116 18.4595 17.9369 20 15.403 20Z" fill="#8F95B2"/>
</g>
</svg>
