<svg width="18" height="18" viewBox="0 0 18 18" fill="none" xmlns="http://www.w3.org/2000/svg">
  <path d="M8.15275 1.55559C8.20368 1.65925 8.23732 1.77027 8.25239 1.8844L8.53082 6.02432L8.66903 8.10514C8.67046 8.31912 8.70403 8.53172 8.76867 8.7361C8.9356 9.13262 9.33716 9.38463 9.77405 9.36706L16.4313 8.93161C16.7196 8.92685 16.998 9.03467 17.2052 9.23134C17.3779 9.39523 17.4894 9.60962 17.5246 9.84022L17.5364 9.98025C17.2609 13.795 14.4592 16.9767 10.6524 17.7981C6.84555 18.6194 2.94186 16.8844 1.06071 13.535C0.518387 12.5619 0.17965 11.4923 0.0643819 10.389C0.0162286 10.0624 -0.00497452 9.73255 0.000979226 9.40261C-0.00496595 5.31279 2.90747 1.77702 6.98433 0.924627C7.47501 0.848225 7.95603 1.10798 8.15275 1.55559Z" fill="white"/>
</svg>
