<svg width="42" height="42" viewBox="0 0 42 42" fill="none" xmlns="http://www.w3.org/2000/svg">
<path d="M27.3947 1.01465C28.8623 1.48137 30.2729 2.11113 31.6003 2.89214C31.0819 6.2189 30.1602 9.4701 28.8557 12.5739C26.6956 14.0345 24.7927 15.8436 23.2246 17.9273C23.7674 11.9853 24.9951 5.99254 27.3947 1.01465Z" fill="white"/>
<path d="M37.7692 8.36757C36.307 8.80843 34.875 9.34406 33.4824 9.97105C33.9962 8.37698 34.4147 6.75371 34.7355 5.10986C35.8588 6.0856 36.8757 7.17759 37.7692 8.36757Z" fill="white"/>
<path d="M40.7723 28.0914C39.4751 31.6991 37.2157 34.8829 34.2388 37.298C31.2618 39.713 27.6809 41.2671 23.884 41.792C23.282 37.1278 22.9433 32.4334 22.8694 27.7311C23.1134 25.4897 23.8552 23.3312 25.0407 21.4136C30.9024 21.567 36.4916 23.922 40.6962 28.0102L40.7723 28.0914Z" fill="white"/>
<path d="M42 21.0026C41.9988 22.1138 41.9123 23.2232 41.7412 24.3212C37.7274 20.892 32.7812 18.7399 27.5366 18.1407C30.0174 15.5376 33.8272 13.0055 39.6511 11.3918C41.1916 14.3613 41.9971 17.6572 42 21.0026Z" fill="white"/>
<path d="M11.9066 6.37787C10.5521 5.72512 9.14947 5.17718 7.71118 4.73887C9.00703 3.67522 10.4279 2.77379 11.9421 2.05457C11.7153 3.48587 11.7033 4.94303 11.9066 6.37787Z" fill="white"/>
<path d="M19.4045 24.7626C18.6791 23.9659 16.6346 22.0428 12.5457 20.2718H12.5153C12.4138 20.2972 6.36673 20.4291 0.46167 25.3715C1.44309 29.9817 3.94566 34.1279 7.56715 37.1438C11.1886 40.1596 15.7187 41.87 20.4293 42C19.6836 36.2854 19.3412 30.5253 19.4045 24.7626ZM4.89554 7.50997C3.33134 9.38057 2.10555 11.5099 1.27336 13.8021C10.9122 15.0555 16.5433 18.0442 19.572 20.3175C19.572 19.9572 19.6125 19.602 19.643 19.2418C19.2321 17.7601 16.6042 10.4125 4.89554 7.52519V7.50997ZM20.9975 1.5076e-06C19.2369 -0.000664357 17.4832 0.219242 15.7773 0.654586C14.2148 5.89634 16.2846 8.83436 16.3252 8.86988C16.4135 8.98626 16.4852 9.11434 16.5382 9.25045C17.971 10.3804 19.2471 11.6961 20.3329 13.1627C20.9519 8.69996 22.1738 4.34192 23.9652 0.208048C22.9818 0.0717114 21.9903 0.00220331 20.9975 1.5076e-06Z" fill="white"/>
<path d="M6.12829 18.1711C3.95201 18.9692 1.89126 20.0527 1.28633e-05 21.3932C1.28633e-05 21.2613 1.28633e-05 21.1344 1.28633e-05 21.0025C-0.00143391 19.7102 0.119165 18.4207 0.360201 17.1511C2.3003 17.384 4.22596 17.7245 6.12829 18.1711Z" fill="white"/>
</svg>
