<svg width="24" height="24" viewBox="0 0 24 24" fill="none" xmlns="http://www.w3.org/2000/svg">
<path d="M7.5 8H16.5C16.1273 6.94593 15.32 6.09614 14.3278 5.58652C16.7714 3.64382 15.2364 0 11.999 0C8.77277 0 7.21908 3.64162 9.67287 5.58858C8.65088 6.11339 7.86516 6.97231 7.5 8Z" fill="white"/>
<path opacity="0.4" d="M19.3019 9.78836C18.0255 9.78836 5.2067 9.78836 4.69811 9.78836C3.76177 9.78836 3 10.4122 3 11.1791V13.1261C3 13.893 3.76177 14.5168 4.69811 14.5168H5.36004L6.53887 22.5636C6.64132 23.2617 7.36642 23.7884 8.22509 23.7884H15.7749C16.6336 23.7884 17.3587 23.2617 17.4611 22.5631L18.64 14.5168H19.3019C20.2382 14.5168 21 13.893 21 13.1261C21 12.4795 21 11.7701 21 11.1791C21 10.4122 20.2382 9.78836 19.3019 9.78836ZM13.8113 20.0798H10.1887C9.72 20.0798 9.33962 19.7682 9.33962 19.3844C9.33962 19.0005 9.72 18.689 10.1887 18.689H13.8113C14.28 18.689 14.6604 19.0005 14.6604 19.3844C14.6604 19.7682 14.28 20.0798 13.8113 20.0798ZM13.8113 17.1129H10.1887C9.72 17.1129 9.33962 16.8013 9.33962 16.4175C9.33962 16.0337 9.72 15.7221 10.1887 15.7221H13.8113C14.28 15.7221 14.6604 16.0337 14.6604 16.4175C14.6604 16.8013 14.28 17.1129 13.8113 17.1129Z" fill="white"/>
</svg>
