<svg width="24" height="24" viewBox="0 0 24 24" fill="none" xmlns="http://www.w3.org/2000/svg">
<path opacity="0.4" d="M16.3959 5.80336H13.7471C13.0873 5.80772 12.4608 5.5142 12.0426 5.00476L11.1704 3.79886C10.7592 3.28495 10.1328 2.99005 9.47389 3.00026H7.60135C4.24037 3.00026 3.00001 4.97281 3.00001 8.32695V11.9526C2.99583 12.3513 20.9961 12.3508 20.9972 11.9526V10.8985C21.0132 7.54432 19.8049 5.80336 16.3959 5.80336Z" fill="white"/>
<path fill-rule="evenodd" clip-rule="evenodd" d="M19.9489 7.08918C20.2369 7.42585 20.4594 7.81314 20.6051 8.23119C20.8918 9.0904 21.0246 9.99333 20.9972 10.8985V15.6263C20.9961 16.0245 20.9667 16.4221 20.9092 16.8162C20.7998 17.5116 20.5551 18.179 20.189 18.7808C20.0207 19.0714 19.8164 19.3397 19.5808 19.5794C18.5145 20.558 17.0985 21.0675 15.6517 20.9929H8.33755C6.88844 21.0669 5.47015 20.5577 4.40041 19.5794C4.16766 19.3393 3.96603 19.071 3.80023 18.7808C3.43628 18.1795 3.19682 17.5114 3.09603 16.8162C3.03194 16.4228 2.99983 16.0248 3 15.6263V10.8985C2.99984 10.5037 3.02122 10.1091 3.06402 9.71659C3.07302 9.64772 3.08652 9.57998 3.09988 9.51293C3.12216 9.40116 3.14404 9.29135 3.14404 9.18153C3.22528 8.70783 3.37346 8.24804 3.58417 7.81591C4.20835 6.48224 5.48872 5.80343 7.58533 5.80343H16.3879C17.5622 5.71261 18.7278 6.06612 19.6528 6.7937C19.7594 6.88404 19.8584 6.98286 19.9489 7.08918ZM7.47329 15.1871H16.5319H16.5479C16.7467 15.1958 16.9406 15.1246 17.0865 14.9896C17.2323 14.8545 17.3179 14.6668 17.3242 14.4684C17.3354 14.294 17.278 14.122 17.1641 13.9892C17.0331 13.8108 16.8256 13.7042 16.6039 13.7017H7.47329C7.06228 13.7017 6.72908 14.0343 6.72908 14.4444C6.72908 14.8546 7.06228 15.1871 7.47329 15.1871Z" fill="white"/>
</svg>
