<svg width="18" height="18" viewBox="0 0 18 18" fill="none" xmlns="http://www.w3.org/2000/svg">
  <path d="M5.97936 16.9039V14.1437C5.97935 13.4443 6.5481 12.876 7.25259 12.8716H9.83935C10.547 12.8716 11.1206 13.4412 11.1206 14.1437V16.8959C11.1206 17.5026 11.6136 17.9956 12.2246 18H13.9894C14.8137 18.0021 15.6049 17.6785 16.1885 17.1006C16.772 16.5228 17.1 15.7381 17.1 14.9198V7.07926C17.1 6.41825 16.8049 5.79124 16.2942 5.36715L10.2987 0.606842C9.25066 -0.22579 7.75384 -0.198893 6.73685 0.670846L0.870311 5.36715C0.335467 5.77874 0.0157971 6.40761 0 7.07926V14.9118C0 16.6173 1.39264 18 3.11056 18H4.83506C5.12926 18.0021 5.41214 17.8876 5.62093 17.6818C5.82971 17.476 5.94713 17.196 5.94713 16.9039H5.97936Z" fill="white"/>
</svg>
