<svg width="24" height="24" viewBox="0 0 24 24" fill="none" xmlns="http://www.w3.org/2000/svg">
<path opacity="0.4" d="M20.5195 4.481C19.5705 3.53 18.2805 3 16.9395 3H7.06049C4.25949 3 2.00049 5.26 2.00049 8.05V15.95C2.00049 18.74 4.26949 21 7.06049 21H16.9395C19.7305 21 22.0005 18.74 22.0005 15.95V8.05C22.0005 6.71 21.4695 5.43 20.5195 4.481Z" fill="white"/>
<path d="M18.6104 9.46009L18.5304 9.54009L14.0194 13.1501C13.4604 13.5901 12.7694 13.8301 12.0604 13.8301C11.3494 13.8301 10.6704 13.5901 10.1104 13.1501L5.56042 9.60009L5.42942 9.47009C5.20042 9.17009 5.23042 8.74009 5.50042 8.47009C5.75942 8.20009 6.18942 8.17009 6.50042 8.40009L11.0004 12.0001C11.5894 12.4811 12.4204 12.4811 13.0004 12.0001L17.5094 8.40009C17.6604 8.26009 17.8604 8.18909 18.0704 8.20009C18.2694 8.22009 18.4604 8.31109 18.5994 8.46009C18.8494 8.75009 18.8494 9.17009 18.6104 9.46009Z" fill="white"/>
</svg>