<svg width="16" height="18" viewBox="0 0 16 18" fill="none" xmlns="http://www.w3.org/2000/svg">
<path fill-rule="evenodd" clip-rule="evenodd" d="M15.3663 2.88264C15.7121 2.88264 16 3.16975 16 3.53508V3.87285C16 4.22929 15.7121 4.52529 15.3663 4.52529H0.634536C0.287876 4.52529 0 4.22929 0 3.87285V3.53508C0 3.16975 0.287876 2.88264 0.634536 2.88264H3.22628C3.75276 2.88264 4.21094 2.50842 4.32937 1.98042L4.4651 1.37421C4.67603 0.548439 5.37022 0 6.16469 0H9.83531C10.6211 0 11.3231 0.548439 11.5263 1.33065L11.6715 1.97954C11.7891 2.50842 12.2472 2.88264 12.7746 2.88264H15.3663ZM14.0494 15.2304C14.32 12.7086 14.7938 6.71756 14.7938 6.65712C14.811 6.47401 14.7514 6.30068 14.633 6.16112C14.5059 6.03046 14.3451 5.95312 14.1679 5.95312H1.83849C1.66041 5.95312 1.49097 6.03046 1.3734 6.16112C1.2541 6.30068 1.19531 6.47401 1.20396 6.65712C1.20555 6.66822 1.22255 6.87926 1.25097 7.23207C1.37722 8.7994 1.72885 13.1647 1.95607 15.2304C2.11686 16.7521 3.11535 17.7086 4.56164 17.7432C5.6777 17.769 6.82747 17.7779 8.00318 17.7779C9.11059 17.7779 10.2353 17.769 11.3859 17.7432C12.8824 17.7174 13.88 16.7779 14.0494 15.2304Z" fill="#D14343"/>
</svg>
