<svg width="6" height="7" viewBox="0 0 6 7" fill="none" xmlns="http://www.w3.org/2000/svg">
<path d="M5.31539 4.0655C5.28714 4.0945 5.18047 4.2185 5.0811 4.3205C4.49854 4.962 2.97881 6.012 2.18339 6.3325C2.06259 6.384 1.75718 6.493 1.59401 6.5C1.43765 6.5 1.2886 6.464 1.14637 6.391C0.96907 6.289 0.826839 6.1285 0.748904 5.939C0.698734 5.8075 0.620799 5.414 0.620799 5.407C0.542864 4.9765 0.5 4.277 0.5 3.504C0.5 2.7675 0.542864 2.0965 0.606673 1.6595C0.613979 1.6525 0.691914 1.1635 0.777155 0.996C0.933512 0.69 1.23892 0.5 1.56576 0.5L1.59401 0.5C1.80687 0.5075 2.25451 0.6975 2.25451 0.7045C3.00706 1.0255 4.49172 2.024 5.08841 2.6875C5.08841 2.6875 5.25645 2.858 5.32952 2.9645C5.4435 3.1175 5.5 3.307 5.5 3.4965C5.5 3.708 5.43619 3.905 5.31539 4.0655Z" fill="#3366FF"/>
</svg>
