<svg width="12" height="12" viewBox="0 0 12 12" fill="none" xmlns="http://www.w3.org/2000/svg">
<path d="M10.8 3.6V7.2C10.7989 8.15446 10.4193 9.06953 9.74442 9.74443C9.06951 10.4193 8.15445 10.799 7.19999 10.8H3.6C3.44087 10.8 3.28826 10.8632 3.17574 10.9757C3.06321 11.0883 3 11.2409 3 11.4C3 11.5591 3.06321 11.7117 3.17574 11.8243C3.28826 11.9368 3.44087 12 3.6 12H7.19999C8.47258 11.9985 9.69263 11.4924 10.5925 10.5925C11.4923 9.69264 11.9985 8.47259 12 7.2V3.6C12 3.44087 11.9368 3.28826 11.8243 3.17574C11.7117 3.06321 11.5591 3 11.4 3C11.2409 3 11.0882 3.06321 10.9757 3.17574C10.8632 3.28826 10.8 3.44087 10.8 3.6Z" fill="white"/>
<path d="M7.19999 10.2C7.99535 10.199 8.75787 9.88268 9.32027 9.32027C9.88268 8.75787 10.199 7.99535 10.2 7.19999V3C10.199 2.20463 9.88268 1.44212 9.32027 0.879713C8.75787 0.317308 7.99535 0.000936868 7.19999 0H3C2.20463 0.000936868 1.44212 0.317308 0.879713 0.879713C0.317308 1.44212 0.000936868 2.20463 0 3V7.19999C0.000936868 7.99535 0.317308 8.75787 0.879713 9.32027C1.44212 9.88268 2.20463 10.199 3 10.2H7.19999ZM3.48599 4.44845L4.25297 5.50901L6.79241 3.15942C6.90927 3.05133 7.06429 2.9941 7.22335 3.00032C7.38241 3.00653 7.53249 3.07567 7.64057 3.19253C7.74865 3.3094 7.80588 3.46441 7.79967 3.62347C7.79346 3.78253 7.72431 3.93261 7.60745 4.04069L4.57121 6.84959C4.5089 6.90721 4.43506 6.95095 4.35459 6.97792C4.27412 7.0049 4.18885 7.0145 4.10439 7.00608C4.01994 6.99767 3.93823 6.97143 3.86467 6.92911C3.7911 6.88678 3.72736 6.82933 3.67763 6.76055L2.514 5.15153C2.42544 5.02245 2.39084 4.86387 2.41758 4.70963C2.44432 4.55539 2.53027 4.4177 2.65711 4.32596C2.78395 4.23421 2.94162 4.19567 3.09648 4.21856C3.25133 4.24144 3.39112 4.32394 3.48599 4.44845Z" fill="white"/>
</svg>
