<svg width="18" height="20" viewBox="0 0 18 20" fill="none" xmlns="http://www.w3.org/2000/svg">
<path d="M15.8088 7.021C15.3573 7.021 14.7592 7.011 14.0146 7.011C12.1987 7.011 10.7055 5.508 10.7055 3.675V0.459C10.7055 0.206 10.5036 0 10.253 0H4.96363C2.49517 0 0.5 2.026 0.5 4.509V15.284C0.5 17.889 2.59022 20 5.16958 20H13.0463C15.5058 20 17.5 17.987 17.5 15.502V7.471C17.5 7.217 17.299 7.012 17.0475 7.013C16.6247 7.016 16.1177 7.021 15.8088 7.021Z" fill="white"/>
<path opacity="0.4" d="M13.0839 0.567248C12.7849 0.256248 12.2629 0.470248 12.2629 0.901248V3.53825C12.2629 4.64425 13.1739 5.55425 14.2799 5.55425C14.9769 5.56225 15.9449 5.56425 16.7669 5.56225C17.1879 5.56125 17.4019 5.05825 17.1099 4.75425C16.0549 3.65725 14.1659 1.69125 13.0839 0.567248Z" fill="white"/>
<path fill-rule="evenodd" clip-rule="evenodd" d="M5.97386 9.38756H9.35886C9.76986 9.38756 10.1039 9.05456 10.1039 8.64356C10.1039 8.23256 9.76986 7.89856 9.35886 7.89856H5.97386C5.56286 7.89856 5.22986 8.23256 5.22986 8.64356C5.22986 9.05456 5.56286 9.38756 5.97386 9.38756ZM5.97396 14.3818H11.418C11.829 14.3818 12.163 14.0488 12.163 13.6378C12.163 13.2268 11.829 12.8928 11.418 12.8928H5.97396C5.56296 12.8928 5.22996 13.2268 5.22996 13.6378C5.22996 14.0488 5.56296 14.3818 5.97396 14.3818Z" fill="#C95B2C"/>
</svg>
