<svg width="20" height="20" viewBox="0 0 20 20" fill="none" xmlns="http://www.w3.org/2000/svg">
<rect x="0.5" y="0.5" width="19" height="19" rx="5.5" fill="white" stroke="#D8DAE5"/>
<rect width="20" height="20" rx="6" fill="#F26522"/>
<path d="M15 5.625C14.65 5.625 14.3375 5.7625 14.1125 5.9875L8.75 11.3625L5.8875 8.4875C5.6625 8.2625 5.35 8.125 5 8.125C4.3125 8.125 3.75 8.6875 3.75 9.375C3.75 9.725 3.8875 10.0375 4.1125 10.2625L7.8625 14.0125C8.0875 14.2375 8.4 14.375 8.75 14.375C9.1 14.375 9.4125 14.2375 9.6375 14.0125L15.8875 7.7625C16.1125 7.5375 16.25 7.225 16.25 6.875C16.25 6.1875 15.6875 5.625 15 5.625Z" fill="white"/>
</svg>
