<svg width="32" height="32" viewBox="0 0 32 32" fill="none" xmlns="http://www.w3.org/2000/svg">
<path fill-rule="evenodd" clip-rule="evenodd" d="M17.8075 16L20.275 13.5325C20.4175 13.3975 20.5 13.21 20.5 13C20.5 12.5875 20.1625 12.25 19.75 12.25C19.54 12.25 19.3525 12.3325 19.2175 12.4675L16.2175 15.4675C16.0825 15.6025 16 15.79 16 16C16 16.21 16.0825 16.3975 16.2175 16.5325L19.2175 19.5325C19.3525 19.6675 19.54 19.75 19.75 19.75C20.1625 19.75 20.5 19.4125 20.5 19C20.5 18.79 20.4175 18.6025 20.2825 18.4675L17.8075 16Z" fill="#D8DAE5"/>
<path fill-rule="evenodd" clip-rule="evenodd" d="M12.8075 16L15.275 13.5325C15.4175 13.3975 15.5 13.21 15.5 13C15.5 12.5875 15.1625 12.25 14.75 12.25C14.54 12.25 14.3525 12.3325 14.2175 12.4675L11.2175 15.4675C11.0825 15.6025 11 15.79 11 16C11 16.21 11.0825 16.3975 11.2175 16.5325L14.2175 19.5325C14.3525 19.6675 14.54 19.75 14.75 19.75C15.1625 19.75 15.5 19.4125 15.5 19C15.5 18.79 15.4175 18.6025 15.2825 18.4675L12.8075 16Z" fill="#D8DAE5"/>
</svg>
