<svg width="12" height="12" viewBox="0 0 12 12" fill="none" xmlns="http://www.w3.org/2000/svg">
<path d="M5.53806 2.87431V0.468903C5.53806 0.213138 5.74206 0 6.00006 0C6.23106 0 6.42677 0.179095 6.45778 0.405948L6.46206 0.468903V2.87431L9.33 2.8745C10.758 2.8745 11.9312 4.04387 11.9971 5.50225L12 5.63165V8.65523C12 10.1238 10.8676 11.3293 9.46082 11.397L9.336 11.4H2.664C1.236 11.4 0.0684539 10.2365 0.00290267 8.77275L0 8.64284L0 5.62546C0 4.15686 1.12675 2.94553 2.5332 2.87751L2.658 2.8745H5.538V6.71593L4.578 5.72459C4.398 5.53872 4.104 5.53872 3.924 5.72459C3.834 5.81753 3.792 5.94145 3.792 6.06536C3.792 6.15954 3.81888 6.25768 3.87571 6.34076L3.924 6.39994L5.67 8.20913C5.754 8.30207 5.874 8.35164 6 8.35164C6.1 8.35164 6.2 8.31721 6.27917 8.25196L6.324 8.20913L8.07 6.39994C8.25 6.21406 8.25 5.91047 8.07 5.72459C7.90636 5.55561 7.64851 5.54025 7.46775 5.67851L7.416 5.72459L6.462 6.71593V2.8745L5.53806 2.87431Z" fill="white"/>
</svg>
