<svg width="32" height="32" viewBox="0 0 32 32" fill="none" xmlns="http://www.w3.org/2000/svg">
<path fill-rule="evenodd" clip-rule="evenodd" d="M15.2825 15.4675L12.2825 12.4675C12.1475 12.3325 11.96 12.25 11.75 12.25C11.3375 12.25 11 12.5875 11 13C11 13.21 11.0825 13.3975 11.2175 13.5325L13.6925 16L11.225 18.4675C11.0825 18.6025 11 18.79 11 19C11 19.4125 11.3375 19.75 11.75 19.75C11.96 19.75 12.1475 19.6675 12.2825 19.5325L15.2825 16.5325C15.4175 16.3975 15.5 16.21 15.5 16C15.5 15.79 15.4175 15.6025 15.2825 15.4675Z" fill="#8F95B2"/>
<path fill-rule="evenodd" clip-rule="evenodd" d="M20.2825 15.4675L17.2825 12.4675C17.1475 12.3325 16.96 12.25 16.75 12.25C16.3375 12.25 16 12.5875 16 13C16 13.21 16.0825 13.3975 16.2175 13.5325L18.6925 16L16.225 18.4675C16.0825 18.6025 16 18.79 16 19C16 19.4125 16.3375 19.75 16.75 19.75C16.96 19.75 17.1475 19.6675 17.2825 19.5325L20.2825 16.5325C20.4175 16.3975 20.5 16.21 20.5 16C20.5 15.79 20.4175 15.6025 20.2825 15.4675Z" fill="#8F95B2"/>
</svg>
