<svg width="32" height="32" viewBox="0 0 32 32" fill="none" xmlns="http://www.w3.org/2000/svg">
<path fill-rule="evenodd" clip-rule="evenodd" d="M16.4425 16L13.975 13.5325C13.8325 13.3975 13.75 13.21 13.75 13C13.75 12.5875 14.0875 12.25 14.5 12.25C14.71 12.25 14.8975 12.3325 15.0325 12.4675L18.0325 15.4675C18.1675 15.6025 18.25 15.79 18.25 16C18.25 16.21 18.1675 16.3975 18.0325 16.5325L15.0325 19.5325C14.8975 19.6675 14.71 19.75 14.5 19.75C14.0875 19.75 13.75 19.4125 13.75 19C13.75 18.79 13.8325 18.6025 13.9675 18.4675L16.4425 16Z" fill="#D8DAE5"/>
</svg>
