<svg width="32" height="32" viewBox="0 0 32 32" fill="none" xmlns="http://www.w3.org/2000/svg">
<path fill-rule="evenodd" clip-rule="evenodd" d="M13.9675 15.4675L16.9675 12.4675C17.1025 12.3325 17.29 12.25 17.5 12.25C17.9125 12.25 18.25 12.5875 18.25 13C18.25 13.21 18.1675 13.3975 18.0325 13.5325L15.5575 16L18.025 18.4675C18.1675 18.6025 18.25 18.79 18.25 19C18.25 19.4125 17.9125 19.75 17.5 19.75C17.29 19.75 17.1025 19.6675 16.9675 19.5325L13.9675 16.5325C13.8325 16.3975 13.75 16.21 13.75 16C13.75 15.79 13.8325 15.6025 13.9675 15.4675Z" fill="#8F95B2"/>
</svg>
