<svg width="8" height="8" viewBox="0 0 8 8" fill="none" xmlns="http://www.w3.org/2000/svg">
<path fill-rule="evenodd" clip-rule="evenodd" d="M4.21976 4.692H4.90491C5.06728 4.692 5.20194 4.56 5.20194 4.396C5.20194 4.228 5.06728 4.096 4.90491 4.096H4.21976V3.404C4.21976 3.24 4.08906 3.108 3.92669 3.108C3.76431 3.108 3.62966 3.24 3.62966 3.404V4.096H2.94847C2.78609 4.096 2.65144 4.228 2.65144 4.396C2.65144 4.56 2.78609 4.692 2.94847 4.692H3.62966V5.384C3.62966 5.548 3.76431 5.68 3.92669 5.68C4.08906 5.68 4.21976 5.548 4.21976 5.384V4.692ZM6.9352 2.81024C7.02829 2.80917 7.12966 2.808 7.22176 2.808C7.32077 2.808 7.39998 2.888 7.39998 2.988V6.204C7.39998 7.196 6.60394 8 5.6178 8H2.46928C1.43958 8 0.599976 7.156 0.599976 6.116V1.804C0.599976 0.812 1.39998 0 2.38611 0H4.50097C4.60394 0 4.68314 0.084 4.68314 0.184V1.472C4.68314 2.204 5.28116 2.804 6.00592 2.808C6.1752 2.808 6.32445 2.80927 6.45505 2.81037C6.55666 2.81123 6.64699 2.812 6.72671 2.812C6.78308 2.812 6.85616 2.81116 6.9352 2.81024ZM7.044 2.22648C6.71845 2.22768 6.33469 2.22648 6.05865 2.22368C5.62063 2.22368 5.25984 1.85928 5.25984 1.41688V0.36248C5.25984 0.19008 5.46697 0.10448 5.58538 0.22888L7.17984 1.90368C7.29548 2.02488 7.21073 2.22608 7.044 2.22648Z" fill="#3366FF"/>
</svg>
