<svg width="12" height="12" viewBox="0 0 12 12" fill="none" xmlns="http://www.w3.org/2000/svg">
<path d="M7.6987 7.5628L6.29245 5.45342C6.162 5.25771 5.83788 5.25771 5.70743 5.45342L4.30118 7.5628C4.22942 7.67061 4.22258 7.80931 4.28368 7.92364C4.34478 8.03797 4.46391 8.10938 4.59368 8.10938H4.94525V10.5703C4.94525 10.7646 5.10249 10.9219 5.29681 10.9219H6.70305C6.89737 10.9219 7.05462 10.7646 7.05462 10.5703V8.10938H7.40618C7.53595 8.10938 7.65508 8.03797 7.71621 7.92364C7.77733 7.80931 7.77044 7.67061 7.6987 7.5628Z" fill="white"/>
<path d="M10.206 4.11183C10.1751 3.69169 10.0045 3.29975 9.70413 2.99935C9.24981 2.54503 8.56588 2.40917 7.96511 2.57689C7.38742 1.64796 6.39362 1.07812 5.29689 1.07812C3.64824 1.07812 2.29041 2.34532 2.14861 3.98642C0.918471 4.29713 0 5.41738 0 6.70314C0 8.25393 1.28515 9.51564 2.83594 9.51564H4.2422V8.75245C3.99774 8.66627 3.79004 8.49152 3.66369 8.25496C3.48001 7.91197 3.50026 7.49725 3.71588 7.17315L5.12249 5.06342C5.31439 4.77537 5.64261 4.60372 6.00001 4.60372C6.35741 4.60372 6.68563 4.77537 6.87754 5.06342L8.28379 7.1728C8.49974 7.49725 8.51999 7.91197 8.33631 8.25496C8.20996 8.49152 8.00226 8.66627 7.7578 8.75245V9.51564H9.16406C10.7148 9.51564 12 8.25393 12 6.70314C12 5.54286 11.2722 4.53645 10.206 4.11183Z" fill="white"/>
</svg>
