<svg width="32" height="32" viewBox="0 0 32 32" fill="none" xmlns="http://www.w3.org/2000/svg">
<path fill-rule="evenodd" clip-rule="evenodd" d="M16.7175 16.5325L19.7175 19.5325C19.8525 19.6675 20.04 19.75 20.25 19.75C20.6625 19.75 21 19.4125 21 19C21 18.79 20.9175 18.6025 20.7825 18.4675L18.3075 16L20.775 13.5325C20.9175 13.3975 21 13.21 21 13C21 12.5875 20.6625 12.25 20.25 12.25C20.04 12.25 19.8525 12.3325 19.7175 12.4675L16.7175 15.4675C16.5825 15.6025 16.5 15.79 16.5 16C16.5 16.21 16.5825 16.3975 16.7175 16.5325Z" fill="#8F95B2"/>
<path fill-rule="evenodd" clip-rule="evenodd" d="M11.7175 16.5325L14.7175 19.5325C14.8525 19.6675 15.04 19.75 15.25 19.75C15.6625 19.75 16 19.4125 16 19C16 18.79 15.9175 18.6025 15.7825 18.4675L13.3075 16L15.775 13.5325C15.9175 13.3975 16 13.21 16 13C16 12.5875 15.6625 12.25 15.25 12.25C15.04 12.25 14.8525 12.3325 14.7175 12.4675L11.7175 15.4675C11.5825 15.6025 11.5 15.79 11.5 16C11.5 16.21 11.5825 16.3975 11.7175 16.5325Z" fill="#8F95B2"/>
</svg>
