<svg width="32" height="32" viewBox="0 0 32 32" fill="none" xmlns="http://www.w3.org/2000/svg">
<path fill-rule="evenodd" clip-rule="evenodd" d="M14.1925 16L11.725 13.5325C11.5825 13.3975 11.5 13.21 11.5 13C11.5 12.5875 11.8375 12.25 12.25 12.25C12.46 12.25 12.6475 12.3325 12.7825 12.4675L15.7825 15.4675C15.9175 15.6025 16 15.79 16 16C16 16.21 15.9175 16.3975 15.7825 16.5325L12.7825 19.5325C12.6475 19.6675 12.46 19.75 12.25 19.75C11.8375 19.75 11.5 19.4125 11.5 19C11.5 18.79 11.5825 18.6025 11.7175 18.4675L14.1925 16Z" fill="#D8DAE5"/>
<path fill-rule="evenodd" clip-rule="evenodd" d="M19.1925 16L16.725 13.5325C16.5825 13.3975 16.5 13.21 16.5 13C16.5 12.5875 16.8375 12.25 17.25 12.25C17.46 12.25 17.6475 12.3325 17.7825 12.4675L20.7825 15.4675C20.9175 15.6025 21 15.79 21 16C21 16.21 20.9175 16.3975 20.7825 16.5325L17.7825 19.5325C17.6475 19.6675 17.46 19.75 17.25 19.75C16.8375 19.75 16.5 19.4125 16.5 19C16.5 18.79 16.5825 18.6025 16.7175 18.4675L19.1925 16Z" fill="#D8DAE5"/>
</svg>
