<svg width="32" height="32" viewBox="0 0 32 32" fill="none" xmlns="http://www.w3.org/2000/svg">
<path fill-rule="evenodd" clip-rule="evenodd" d="M18.0325 15.4675L15.0325 12.4675C14.8975 12.3325 14.71 12.25 14.5 12.25C14.0875 12.25 13.75 12.5875 13.75 13C13.75 13.21 13.8325 13.3975 13.9675 13.5325L16.4425 16L13.975 18.4675C13.8325 18.6025 13.75 18.79 13.75 19C13.75 19.4125 14.0875 19.75 14.5 19.75C14.71 19.75 14.8975 19.6675 15.0325 19.5325L18.0325 16.5325C18.1675 16.3975 18.25 16.21 18.25 16C18.25 15.79 18.1675 15.6025 18.0325 15.4675Z" fill="#8F95B2"/>
</svg>
