<?xml version="1.0" encoding="utf-8"?>
<svg version="1.1" xmlns:xlink="http://www.w3.org/1999/xlink" width="24px" height="24px" xmlns="http://www.w3.org/2000/svg">
  <g transform="matrix(1 0 0 1 -221 -13 )">
    <path d="M 17.8515625 10.1484375  C 17.9505208333333 10.2473958333333  18 10.3645833333333  18 10.5  L 18 13.5  C 18 13.6354166666667  17.9505208333333 13.7526041666667  17.8515625 13.8515625  C 17.7526041666667 13.9505208333333  17.6354166666667 14  17.5 14  L 12 14  L 12 17  C 12 17.1458333333333  11.953125 17.265625  11.859375 17.359375  C 11.765625 17.453125  11.6458333333333 17.5  11.5 17.5  C 11.375 17.5  11.25 17.4479166666667  11.125 17.34375  L 6.140625 12.359375  C 6.046875 12.265625  6 12.1458333333333  6 12  C 6 11.8541666666667  6.046875 11.734375  6.140625 11.640625  L 11.140625 6.640625  C 11.234375 6.546875  11.3541666666667 6.5  11.5 6.5  C 11.6354166666667 6.5  11.7526041666667 6.54947916666666  11.8515625 6.6484375  C 11.9505208333333 6.74739583333333  12 6.86458333333333  12 7  L 12 10  L 17.5 10  C 17.6354166666667 10  17.7526041666667 10.0494791666667  17.8515625 10.1484375  Z M 19.359375 16.265625  C 20.1197916666667 14.9635416666667  20.5 13.5416666666667  20.5 12  C 20.5 10.4583333333333  20.1197916666667 9.03645833333333  19.359375 7.734375  C 18.5989583333333 6.43229166666666  17.5677083333333 5.40104166666666  16.265625 4.640625  C 14.9635416666667 3.88020833333333  13.5416666666667 3.5  12 3.5  C 10.4583333333333 3.5  9.03645833333333 3.88020833333333  7.734375 4.640625  C 6.43229166666667 5.40104166666666  5.40104166666667 6.43229166666666  4.640625 7.734375  C 3.88020833333333 9.03645833333333  3.5 10.4583333333333  3.5 12  C 3.5 13.5416666666667  3.88020833333333 14.9635416666667  4.640625 16.265625  C 5.40104166666667 17.5677083333333  6.43229166666667 18.5989583333333  7.734375 19.359375  C 9.03645833333333 20.1197916666667  10.4583333333333 20.5  12 20.5  C 13.5416666666667 20.5  14.9635416666667 20.1197916666667  16.265625 19.359375  C 17.5677083333333 18.5989583333333  18.5989583333333 17.5677083333333  19.359375 16.265625  Z M 22.390625 5.9765625  C 23.4635416666667 7.81510416666666  24 9.82291666666666  24 12  C 24 14.1770833333333  23.4635416666667 16.1848958333333  22.390625 18.0234375  C 21.3177083333333 19.8619791666667  19.8619791666667 21.3177083333333  18.0234375 22.390625  C 16.1848958333333 23.4635416666667  14.1770833333333 24  12 24  C 9.82291666666667 24  7.81510416666667 23.4635416666667  5.9765625 22.390625  C 4.13802083333333 21.3177083333333  2.68229166666667 19.8619791666667  1.609375 18.0234375  C 0.536458333333333 16.1848958333333  0 14.1770833333333  0 12  C 0 9.82291666666666  0.536458333333333 7.81510416666666  1.609375 5.9765625  C 2.68229166666667 4.13802083333333  4.13802083333333 2.68229166666666  5.9765625 1.609375  C 7.81510416666667 0.536458333333331  9.82291666666667 0  12 0  C 14.1770833333333 0  16.1848958333333 0.536458333333331  18.0234375 1.609375  C 19.8619791666667 2.68229166666666  21.3177083333333 4.13802083333333  22.390625 5.9765625  Z " fill-rule="nonzero" fill="#e8e8e8" stroke="none" transform="matrix(1 0 0 1 221 13 )" />
  </g>
</svg>